<?xml version="1.0" encoding="UTF-8" standalone="no"?>
<svg
   xmlns:dc="http://purl.org/dc/elements/1.1/"
   xmlns:cc="http://creativecommons.org/ns#"
   xmlns:rdf="http://www.w3.org/1999/02/22-rdf-syntax-ns#"
   xmlns:svg="http://www.w3.org/2000/svg"
   xmlns="http://www.w3.org/2000/svg"
   xmlns:sodipodi="http://sodipodi.sourceforge.net/DTD/sodipodi-0.dtd"
   xmlns:inkscape="http://www.inkscape.org/namespaces/inkscape"
   width="1008.8364"
   height="235.26431"
   viewBox="0 0 266.92131 62.247016"
   version="1.1"
   id="svg1453"
   inkscape:version="1.0.2-2 (e86c870879, 2021-01-15)"
   sodipodi:docname="logo_preto.svg"
   inkscape:export-filename="C:\Users\Paulo\Documents\Codekraft\art\logotipo_transparente.png"
   inkscape:export-xdpi="300"
   inkscape:export-ydpi="300">
  <defs
     id="defs1447">
    <rect
       x="99.424263"
       y="107.44235"
       width="231.98994"
       height="76.973625"
       id="rect1310-7" />
    <rect
       x="99.424263"
       y="107.44235"
       width="231.98994"
       height="76.973625"
       id="rect1436" />
  </defs>
  <sodipodi:namedview
     id="base"
     pagecolor="#656565"
     bordercolor="#666666"
     borderopacity="1.0"
     inkscape:pageopacity="0"
     inkscape:pageshadow="2"
     inkscape:zoom="1.4142136"
     inkscape:cx="802.82717"
     inkscape:cy="184.85157"
     inkscape:document-units="mm"
     inkscape:current-layer="layer1"
     inkscape:document-rotation="0"
     showgrid="false"
     inkscape:pagecheckerboard="false"
     inkscape:window-width="1920"
     inkscape:window-height="1017"
     inkscape:window-x="1912"
     inkscape:window-y="-8"
     inkscape:window-maximized="1"
     fit-margin-top="0"
     fit-margin-left="0"
     fit-margin-right="0"
     fit-margin-bottom="0"
     units="px" />
  <metadata
     id="metadata1450">
    <rdf:RDF>
      <cc:Work
         rdf:about="">
        <dc:format>image/svg+xml</dc:format>
        <dc:type
           rdf:resource="http://purl.org/dc/dcmitype/StillImage" />
        <dc:title></dc:title>
      </cc:Work>
    </rdf:RDF>
  </metadata>
  <g
     inkscape:label="Layer 1"
     inkscape:groupmode="layer"
     id="layer1"
     transform="translate(-31.076164,-134.66368)">
    <g
       id="g2087"
       transform="matrix(1.841108,0,0,1.841108,-26.138412,-113.2667)">
      <g
         inkscape:label="Clip"
         id="g1317-4-0"
         style="fill:#ea1515;fill-opacity:1"
         transform="matrix(0.18073186,0.10434559,-0.10434559,0.18073186,70.287945,121.90401)"
         inkscape:export-filename="C:\Users\Paulo\Documents\Curso Criando Seu Primeiro Blockchain Game\sell-page\public\preto.png"
         inkscape:export-xdpi="600.2627"
         inkscape:export-ydpi="600.2627">
        <path
           id="path839-8-9-6"
           style="opacity:1;fill:#ea1515;fill-opacity:1;stroke:none;stroke-width:4;stroke-miterlimit:4;stroke-dasharray:none"
           d="m 2.0257027,139.15891 a 46.491069,46.491069 0 0 1 5.9628801,21.33385 46.491069,46.491069 0 0 1 -31.5521658,0.89582 l -0.0021,-5.3e-4 a 46.491069,46.491069 0 0 1 -0.534513,-0.17933 46.491069,46.491069 0 0 1 2.314173,-13.29331 46.491069,46.491069 0 0 1 3.88152,-8.67976 46.491069,46.491069 0 0 0 0.122171,0.17303 46.491069,46.491069 0 0 0 9.3273543,9.75043 46.491069,46.491069 0 0 0 0.4614083,-0.32407 l 0.00104,-9.9e-4 a 46.491069,46.491069 0 0 0 10.0182321,-9.67514 z m -8.364159,-64.899406 a 46.491069,46.491069 0 0 1 9.3268406,9.749913 46.491069,46.491069 0 0 1 -0.9626816,55.149493 46.491069,46.491069 0 0 0 -9.8058579,-12.09205 46.491069,46.491069 0 0 0 -10.1243498,12.16882 46.491069,46.491069 0 0 1 0.869734,-54.691314 l -5.12e-4,-5.21e-4 a 46.491069,46.491069 0 0 1 10.2349014,-9.960277 46.491069,46.491069 0 0 1 0.4619253,-0.324064 z"
           inkscape:transform-center-y="-43.46844"
           inkscape:transform-center-x="-0.39272301"
           inkscape:export-filename="C:\Users\Paulo\favicon.png"
           inkscape:export-xdpi="35"
           inkscape:export-ydpi="35" />
        <path
           id="path839-8-5-3-0"
           style="opacity:1;fill:#ea1515;fill-opacity:1;stroke:none;stroke-width:4;stroke-miterlimit:4;stroke-dasharray:none"
           d="m -40.070462,176.33108 1.5e-5,4e-5 a 46.491069,46.491069 0 0 1 15.748314,-15.57819 46.491069,46.491069 0 0 1 16.1149587,27.14135 l 5.39e-4,0.002 a 46.491069,46.491069 0 0 1 0.1030071,0.5543 46.491069,46.491069 0 0 1 -12.7428768,4.43694 46.491069,46.491069 0 0 1 -9.472252,0.82524 46.491069,46.491069 0 0 0 0.09186,-0.19085 46.491069,46.491069 0 0 0 3.98951,-12.89009 46.491069,46.491069 0 0 0 -0.507394,-0.24579 l -0.0015,-3.9e-4 a 46.491069,46.491069 0 0 0 -13.324181,-4.05456 z m -52.657824,38.84643 a 46.491069,46.491069 0 0 1 3.989305,-12.88939 46.491069,46.491069 0 0 1 48.668519,-25.95704 46.491069,46.491069 0 0 0 -5.80357,14.44614 46.491069,46.491069 0 0 0 15.555222,2.93558 46.491069,46.491069 0 0 1 -48.222898,25.81562 l -2.11e-4,7.3e-4 a 46.491069,46.491069 0 0 1 -13.678675,-4.10539 46.491069,46.491069 0 0 1 -0.507692,-0.24625 z"
           inkscape:export-filename="C:\Users\Paulo\favicon.png"
           inkscape:export-xdpi="35"
           inkscape:export-ydpi="35" />
        <path
           id="path839-8-5-8-1-6"
           style="opacity:1;fill:#ea1515;fill-opacity:1;stroke:none;stroke-width:4;stroke-miterlimit:4;stroke-dasharray:none"
           d="m 23.562343,175.56542 -1.8e-5,5e-5 A 46.491069,46.491069 0 0 0 7.4437378,160.37072 46.491069,46.491069 0 0 0 -8.0134972,187.89196 l -4.91e-4,0.002 a 46.491069,46.491069 0 0 0 -0.08964,0.55662 46.491069,46.491069 0 0 0 12.845946,4.12904 46.491069,46.491069 0 0 0 9.4893652,0.59709 46.491069,46.491069 0 0 1 -0.09643,-0.18859 46.491069,46.491069 0 0 1 -4.2985075,-12.79036 46.491069,46.491069 0 0 1 0.5013335,-0.25793 l 0.0015,-4.2e-4 a 46.491069,46.491069 0 0 1 13.222764,-4.37399 z m 53.577276,37.56817 a 46.491069,46.491069 0 0 0 -4.298286,-12.78967 46.491069,46.491069 0 0 0 -49.27899,-24.7785 46.491069,46.491069 0 0 1 6.149483,14.30232 46.491069,46.491069 0 0 1 -15.480084,3.30901 46.491069,46.491069 0 0 0 48.830095,24.64784 l 2.28e-4,7.2e-4 a 46.491069,46.491069 0 0 0 13.575934,-4.43333 46.491069,46.491069 0 0 0 0.50162,-0.25839 z"
           inkscape:export-filename="C:\Users\Paulo\favicon.png"
           inkscape:export-xdpi="35"
           inkscape:export-ydpi="35" />
      </g>
      <text
         xml:space="preserve"
         id="text1308-1"
         style="font-style:normal;font-weight:normal;font-size:10.5833px;line-height:1.25;font-family:sans-serif;letter-spacing:0px;word-spacing:0px;white-space:pre;shape-inside:url(#rect1310-7);fill:#000000;fill-opacity:1;stroke:none;"
         transform="translate(-32.878627,34.745544)"
         inkscape:export-xdpi="600.2627"
         inkscape:export-ydpi="600.2627"
         inkscape:export-filename="C:\Users\Paulo\Documents\Curso Criando Seu Primeiro Blockchain Game\sell-page\public\preto.png"><tspan
           x="99.423828"
           y="122.94208"><tspan
             style="font-style:normal;font-variant:normal;font-weight:bold;font-stretch:normal;font-size:19.05px;font-family:'Myanmar Text';-inkscape-font-specification:'Myanmar Text Bold';fill:#000000">CODEKRAFT</tspan></tspan></text>
    </g>
  </g>
</svg>
